<svg xmlns="http://www.w3.org/2000/svg" width="64" height="48" viewBox="0 0 64 48" role="img" aria-label="United States flag">
  <rect width="64" height="48" fill="#fff"/>
  <!-- red stripes -->
  <g fill="#b22234">
    <rect y="0" width="64" height="4"/>
    <rect y="8" width="64" height="4"/>
    <rect y="16" width="64" height="4"/>
    <rect y="24" width="64" height="4"/>
    <rect y="32" width="64" height="4"/>
    <rect y="40" width="64" height="4"/>
  </g>
  <!-- blue canton -->
  <rect width="28" height="20" fill="#3c3b6e"/>
  <!-- simple star dots -->
  <g fill="#fff" opacity="0.9">
    <circle cx="4" cy="4" r="1"/>
    <circle cx="10" cy="4" r="1"/>
    <circle cx="16" cy="4" r="1"/>
    <circle cx="22" cy="4" r="1"/>

    <circle cx="7" cy="8" r="1"/>
    <circle cx="13" cy="8" r="1"/>
    <circle cx="19" cy="8" r="1"/>
    <circle cx="25" cy="8" r="1"/>

    <circle cx="4" cy="12" r="1"/>
    <circle cx="10" cy="12" r="1"/>
    <circle cx="16" cy="12" r="1"/>
    <circle cx="22" cy="12" r="1"/>

    <circle cx="7" cy="16" r="1"/>
    <circle cx="13" cy="16" r="1"/>
    <circle cx="19" cy="16" r="1"/>
    <circle cx="25" cy="16" r="1"/>
  </g>
</svg>
