<svg xmlns="http://www.w3.org/2000/svg" viewBox="0 0 640 400" role="img" aria-label="Montemilia Facebook">
  <rect x="24" y="24" width="592" height="352" rx="28" fill="#ffffff" stroke="#c8b27a" stroke-width="2"/>

  <!-- Messenger style bubble -->
  <path d="M184 104h272c30 0 54 24 54 54v94c0 30-24 54-54 54H300l-76 52v-52h-40c-30 0-54-24-54-54v-94c0-30 24-54 54-54z" fill="none" stroke="#24302e" stroke-width="10" stroke-linejoin="round"/>

  <!-- Simple 'f' mark -->
  <path d="M336 132h-26c-16 0-28 12-28 28v18h-18v28h18v74h30v-74h22l6-28h-28v-16c0-6 4-10 10-10h18v-20z" fill="#c8b27a"/>

  <!-- Decorative flourish -->
  <path d="M132 308c30-26 64-38 100-38c30 0 58 8 86 24c28-36 62-54 104-54c40 0 78 16 114 48" fill="none" stroke="#c8b27a" stroke-width="6" stroke-linecap="round" stroke-linejoin="round"/>
  <path d="M92 312h456" stroke="#e8dfc6" stroke-width="3" stroke-linecap="round"/>
</svg>
